<svg width="30" height="26" viewBox="0 0 30 26" fill="none" xmlns="http://www.w3.org/2000/svg">
<rect width="30" height="26" fill="black" fill-opacity="0"/>
<rect width="20" height="20.5" fill="black" fill-opacity="0" transform="translate(5 3)"/>
<path fill-rule="evenodd" clip-rule="evenodd" d="M21.4102 11.2C21.4102 15.7287 17.7368 19.4 13.2051 19.4C8.67334 19.4 5 15.7287 5 11.2C5 6.67126 8.67334 3 13.2051 3C17.7368 3 21.4102 6.67126 21.4102 11.2ZM7.05127 11.2C7.05127 14.5966 9.80664 17.35 13.2051 17.35C16.604 17.35 19.3589 14.5966 19.3589 11.2C19.3589 7.80345 16.604 5.05 13.2051 5.05C9.80664 5.05 7.05127 7.80345 7.05127 11.2Z" fill="#BCBDC0"/>
<path fill-rule="evenodd" clip-rule="evenodd" d="M23.2307 23.1809C23.6208 23.5914 24.27 23.608 24.6807 23.2182C25.0914 22.8283 25.108 22.1795 24.7179 21.7691L19.0769 15.8343C18.6868 15.4238 18.0376 15.4072 17.6269 15.7971C17.2162 16.1869 17.1995 16.8357 17.5896 17.2461L23.2307 23.1809Z" fill="#BCBDC0"/>
</svg>
