<svg width="9" height="15" viewBox="0 0 9 15" fill="none" xmlns="http://www.w3.org/2000/svg">
<path opacity="0.5" fill-rule="evenodd" clip-rule="evenodd" d="M8.54634 6.39205C8.54536 6.39084 8.5439 6.38965 8.54292 6.38845C8.53511 6.38054 8.5273 6.37271 8.51948 6.36501L2.66157 0.460407C2.05269 -0.153469 1.06538 -0.153469 0.456496 0.460407C-0.15239 1.07427 -0.15239 2.06955 0.456496 2.68343L5.23482 7.5002L0.456985 12.3165C-0.15239 12.9303 -0.15239 13.9256 0.456985 14.5395C1.06587 15.1534 2.05318 15.1534 2.66206 14.5395L8.54292 8.61147C8.61909 8.53473 8.6855 8.45203 8.74263 8.36487C9.14156 7.75609 9.07564 6.92929 8.54634 6.39205Z" fill="#282C37"/>
</svg>
