<svg width="375" height="20" viewBox="0 0 375 20" fill="none" xmlns="http://www.w3.org/2000/svg">
<rect width="375" height="20" fill="black" fill-opacity="0"/>
<path fill-rule="evenodd" clip-rule="evenodd" d="M0 0V20H375V0H0Z" fill="black" fill-opacity="0.05"/>
<path opacity="0.5" d="M34.1738 10.2305V9.19922H30.7461V10.125H33.125V10.3301C33.125 11.7598 32.0996 12.7266 30.5879 12.7266C28.8887 12.7266 27.834 11.4023 27.834 9.26953C27.834 7.16602 28.9062 5.81836 30.582 5.81836C31.8359 5.81836 32.6855 6.42188 33.0488 7.56445H34.1211C33.8164 5.88867 32.457 4.8457 30.582 4.8457C28.2676 4.8457 26.75 6.59766 26.75 9.26953C26.75 11.9766 28.2441 13.6992 30.582 13.6992C32.7441 13.6992 34.1738 12.3164 34.1738 10.2305ZM35.6387 11.291C35.75 12.75 36.9863 13.6992 38.7793 13.6992C40.7129 13.6992 41.9375 12.709 41.9375 11.1562C41.9375 9.91406 41.2344 9.23438 39.4824 8.79492L38.5977 8.56055C37.4316 8.26172 36.9688 7.88086 36.9688 7.21875C36.9688 6.36328 37.7129 5.80078 38.8379 5.80078C39.8926 5.80078 40.6074 6.31641 40.7539 7.18359H41.8145C41.7266 5.81836 40.5078 4.8457 38.873 4.8457C37.0859 4.8457 35.8848 5.81836 35.8848 7.25391C35.8848 8.45508 36.5469 9.14648 38.0762 9.5332L39.1602 9.81445C40.3262 10.1074 40.8535 10.5645 40.8535 11.2852C40.8535 12.123 40.0156 12.7383 38.8789 12.7383C37.6777 12.7383 36.834 12.1758 36.7051 11.291H35.6387Z" fill="black"/>
<g opacity="0.5">
<rect width="60.5" height="14" fill="black" fill-opacity="0" transform="translate(310 3.5)"/>
<path d="M315.812 14.5H316.867V6.04492H315.818L313.568 7.66211V8.77539L315.719 7.2168H315.812V14.5ZM322.234 14.6992C324.133 14.6992 325.223 13.0938 325.223 10.2871C325.223 7.48633 324.115 5.8457 322.234 5.8457C320.342 5.8457 319.234 7.48047 319.234 10.2695C319.234 13.082 320.33 14.6992 322.234 14.6992ZM322.234 13.7793C320.986 13.7793 320.295 12.5312 320.295 10.2695C320.295 8.03711 320.998 6.77148 322.234 6.77148C323.471 6.77148 324.162 8.02539 324.162 10.2695C324.162 12.5371 323.482 13.7793 322.234 13.7793ZM329.793 14.6992C331.691 14.6992 332.781 13.0938 332.781 10.2871C332.781 7.48633 331.674 5.8457 329.793 5.8457C327.9 5.8457 326.793 7.48047 326.793 10.2695C326.793 13.082 327.889 14.6992 329.793 14.6992ZM329.793 13.7793C328.545 13.7793 327.854 12.5312 327.854 10.2695C327.854 8.03711 328.557 6.77148 329.793 6.77148C331.029 6.77148 331.721 8.02539 331.721 10.2695C331.721 12.5371 331.041 13.7793 329.793 13.7793ZM337.639 7.93164C337.639 6.73633 336.895 5.89844 335.84 5.89844C334.785 5.89844 334.035 6.74219 334.035 7.93164C334.035 9.12695 334.785 9.9707 335.84 9.9707C336.895 9.9707 337.639 9.12695 337.639 7.93164ZM335.84 9.2207C335.318 9.2207 334.973 8.71094 334.973 7.93164C334.973 7.15234 335.312 6.64844 335.84 6.64844C336.367 6.64844 336.701 7.14062 336.701 7.93164C336.701 8.70508 336.355 9.2207 335.84 9.2207ZM335.746 14.5L338.646 10.5332L341.928 6.04492H340.861L337.896 10.0938L334.668 14.5H335.746ZM342.531 12.6074C342.531 11.4121 341.787 10.5742 340.732 10.5742C339.678 10.5742 338.928 11.418 338.928 12.6074C338.928 13.8027 339.678 14.6465 340.732 14.6465C341.787 14.6465 342.531 13.8027 342.531 12.6074ZM340.732 13.8965C340.211 13.8965 339.865 13.3867 339.865 12.6074C339.865 11.8281 340.205 11.3242 340.732 11.3242C341.26 11.3242 341.594 11.8164 341.594 12.6074C341.594 13.3809 341.248 13.8965 340.732 13.8965Z" fill="#030303"/>
<rect width="24.5" height="10.5" fill="black" fill-opacity="0" transform="translate(346 5)"/>
<path opacity="0.4" d="M346.5 7.5C346.5 6.39543 347.395 5.5 348.5 5.5H365.5C366.605 5.5 367.5 6.39543 367.5 7.5V13C367.5 14.1046 366.605 15 365.5 15H364.469H348.5C347.395 15 346.5 14.1046 346.5 13V7.5Z" stroke="black"/>
<path fill-rule="evenodd" clip-rule="evenodd" d="M369 12.374C369.863 12.1519 370.5 11.3689 370.5 10.437C370.5 9.50507 369.863 8.72203 369 8.5V12.374Z" fill="black" fill-opacity="0.5"/>
<path fill-rule="evenodd" clip-rule="evenodd" d="M348 8C348 7.44772 348.448 7 349 7H365C365.552 7 366 7.44772 366 8V12.5C366 13.0523 365.552 13.5 365 13.5H349C348.448 13.5 348 13.0523 348 12.5V8Z" fill="black"/>
</g>
<path opacity="0.5" d="M168.203 13.7051C170.354 13.7051 171.631 12.0234 171.631 9.17578C171.631 8.10352 171.426 7.20117 171.033 6.50391C170.465 5.41992 169.486 4.83398 168.25 4.83398C166.41 4.83398 165.109 6.07031 165.109 7.80469C165.109 9.43359 166.281 10.6172 167.893 10.6172C168.883 10.6172 169.686 10.1543 170.084 9.35156H170.102C170.102 9.35156 170.125 9.35156 170.131 9.35156C170.143 9.35156 170.184 9.35156 170.184 9.35156C170.184 11.2852 169.451 12.4395 168.215 12.4395C167.488 12.4395 166.926 12.041 166.732 11.4023H165.227C165.479 12.791 166.656 13.7051 168.203 13.7051ZM168.256 9.41602C167.283 9.41602 166.592 8.72461 166.592 7.75781C166.592 6.81445 167.318 6.09375 168.262 6.09375C169.205 6.09375 169.932 6.82617 169.932 7.78125C169.932 8.72461 169.223 9.41602 168.256 9.41602ZM174.344 13.623C174.9 13.623 175.281 13.2246 175.281 12.6973C175.281 12.1641 174.9 11.7715 174.344 11.7715C173.793 11.7715 173.406 12.1641 173.406 12.6973C173.406 13.2246 173.793 13.623 174.344 13.623ZM174.344 9.22852C174.9 9.22852 175.281 8.83594 175.281 8.30859C175.281 7.77539 174.9 7.38281 174.344 7.38281C173.793 7.38281 173.406 7.77539 173.406 8.30859C173.406 8.83594 173.793 9.22852 174.344 9.22852ZM181.006 13.5H182.453V11.9238H183.596V10.6465H182.453V5.04492H180.32C178.826 7.29492 177.637 9.17578 176.875 10.5762V11.9238H181.006V13.5ZM178.275 10.5938C179.26 8.85938 180.139 7.4707 180.947 6.27539H181.029V10.6816H178.275V10.5938ZM187.059 13.5H188.57V5.04492H187.064L184.855 6.5918V8.04492L186.959 6.56836H187.059V13.5ZM199.785 13.5H201.408L198.402 5.04492H196.703L193.703 13.5H195.232L195.959 11.3379H199.07L199.785 13.5ZM197.471 6.65625H197.57L198.719 10.1426H196.311L197.471 6.65625ZM211.592 13.5V5.04492H209.822L207.279 11.2031H207.174L204.631 5.04492H202.861V13.5H204.268V7.55273H204.35L206.688 13.1719H207.766L210.104 7.55273H210.186V13.5H211.592Z" fill="#030303"/>
<path opacity="0.5" fill-rule="evenodd" clip-rule="evenodd" d="M51.9878 5.5C54.5508 5.5 56.8628 6.53944 58.5 8.20688L57.4121 9.26404C56.0537 7.86552 54.126 6.99223 51.9878 6.99223C49.8628 6.99223 47.9463 7.85431 46.5894 9.23709L45.5 8.18164C47.1357 6.52896 49.4375 5.5 51.9878 5.5ZM56.3232 10.3214C55.2446 9.19174 53.7012 8.48445 51.9873 8.48445C50.2881 8.48445 48.7563 9.17975 47.6792 10.2927L48.769 11.3486C49.5669 10.5054 50.7134 9.97668 51.9873 9.97668C53.2769 9.97668 54.4355 10.5182 55.2344 11.3793L56.3232 10.3214ZM54.1445 12.4385C53.6265 11.8455 52.8525 11.4689 51.9878 11.4689C51.1392 11.4689 50.3779 11.8314 49.8604 12.4053L52.0229 14.5L54.1445 12.4385Z" fill="#030303"/>
<path opacity="0.5" fill-rule="evenodd" clip-rule="evenodd" d="M19.5 5C19.2236 5 19 5.22386 19 5.5V14C19 14.2761 19.2236 14.5 19.5 14.5H21C21.2764 14.5 21.5 14.2761 21.5 14V5.5C21.5 5.22386 21.2764 5 21 5H19.5ZM15.5 7.5C15.2236 7.5 15 7.72386 15 8V14C15 14.2761 15.2236 14.5 15.5 14.5H17C17.2764 14.5 17.5 14.2761 17.5 14V8C17.5 7.72386 17.2764 7.5 17 7.5H15.5ZM11 10C11 9.72386 11.2236 9.5 11.5 9.5H13C13.2764 9.5 13.5 9.72386 13.5 10V14C13.5 14.2761 13.2764 14.5 13 14.5H11.5C11.2236 14.5 11 14.2761 11 14V10ZM7.5 11.5C7.22363 11.5 7 11.7239 7 12V14C7 14.2761 7.22363 14.5 7.5 14.5H9C9.27637 14.5 9.5 14.2761 9.5 14V12C9.5 11.7239 9.27637 11.5 9 11.5H7.5Z" fill="black"/>
</svg>
